<svg xmlns="http://www.w3.org/2000/svg" width="185" height="13" viewBox="0 0 185 13" fill="none">
<path d="M0.228 0.354H2.622V12H0.228V0.354ZM16.4139 12L7.75594 3.54V12H5.36194V0.354H7.75594L16.4139 8.886V0.354H18.8079V12H16.4139ZM34.8165 7.806C34.6605 9.222 34.0065 10.314 32.8545 11.082C31.7025 11.85 30.1485 12.234 28.1925 12.234C26.7405 12.234 25.4565 12.012 24.3405 11.568C23.2245 11.112 22.3545 10.44 21.7305 9.552C21.1065 8.652 20.7945 7.536 20.7945 6.204C20.7945 4.86 21.1065 3.738 21.7305 2.838C22.3545 1.938 23.2245 1.26 24.3405 0.803999C25.4565 0.347999 26.7405 0.12 28.1925 0.12C30.1605 0.12 31.7145 0.515999 32.8545 1.308C34.0065 2.1 34.6605 3.204 34.8165 4.62H32.4405C32.2005 3.864 31.7265 3.27 31.0185 2.838C30.3225 2.406 29.3805 2.19 28.1925 2.19C26.7045 2.19 25.5105 2.532 24.6105 3.216C23.7105 3.888 23.2605 4.884 23.2605 6.204C23.2605 7.5 23.7105 8.49 24.6105 9.174C25.5105 9.846 26.7045 10.182 28.1925 10.182C29.3805 10.182 30.3225 9.972 31.0185 9.552C31.7145 9.12 32.1885 8.538 32.4405 7.806H34.8165ZM39.0274 0.354H51.3034V2.352H46.3714V12H43.9774V2.352H39.0274V0.354ZM55.0777 7.14V10.002H64.0597V12H52.6837V0.354H64.0417V2.352H55.0777V5.25H62.4217V7.14H55.0777ZM79.6422 7.806C79.4862 9.222 78.8322 10.314 77.6802 11.082C76.5282 11.85 74.9742 12.234 73.0182 12.234C71.5662 12.234 70.2822 12.012 69.1662 11.568C68.0502 11.112 67.1802 10.44 66.5562 9.552C65.9322 8.652 65.6202 7.536 65.6202 6.204C65.6202 4.86 65.9322 3.738 66.5562 2.838C67.1802 1.938 68.0502 1.26 69.1662 0.803999C70.2822 0.347999 71.5662 0.12 73.0182 0.12C74.9862 0.12 76.5402 0.515999 77.6802 1.308C78.8322 2.1 79.4862 3.204 79.6422 4.62H77.2662C77.0262 3.864 76.5522 3.27 75.8442 2.838C75.1482 2.406 74.2062 2.19 73.0182 2.19C71.5302 2.19 70.3362 2.532 69.4362 3.216C68.5362 3.888 68.0862 4.884 68.0862 6.204C68.0862 7.5 68.5362 8.49 69.4362 9.174C70.3362 9.846 71.5302 10.182 73.0182 10.182C74.2062 10.182 75.1482 9.972 75.8442 9.552C76.5402 9.12 77.0142 8.538 77.2662 7.806H79.6422ZM81.618 0.354H84.012V5.16H92.562V0.354H94.956V12H92.562V7.158H84.012V12H81.618V0.354ZM108.412 12L99.7535 3.54V12H97.3595V0.354H99.7535L108.412 8.886V0.354H110.806V12H108.412ZM120.154 12.234C118.606 12.234 117.28 11.994 116.176 11.514C115.084 11.022 114.244 10.326 113.656 9.426C113.08 8.526 112.792 7.446 112.792 6.186C112.792 4.914 113.08 3.828 113.656 2.928C114.244 2.028 115.084 1.338 116.176 0.858C117.28 0.366 118.606 0.12 120.154 0.12C121.714 0.12 123.04 0.366 124.132 0.858C125.224 1.338 126.058 2.028 126.634 2.928C127.222 3.828 127.516 4.914 127.516 6.186C127.516 7.446 127.222 8.526 126.634 9.426C126.058 10.326 125.224 11.022 124.132 11.514C123.04 11.994 121.714 12.234 120.154 12.234ZM120.154 10.164C121.114 10.164 121.954 10.02 122.674 9.732C123.406 9.444 123.976 9.006 124.384 8.418C124.804 7.83 125.014 7.086 125.014 6.186C125.014 5.286 124.804 4.542 124.384 3.954C123.976 3.366 123.406 2.928 122.674 2.64C121.954 2.34 121.114 2.19 120.154 2.19C119.206 2.19 118.36 2.34 117.616 2.64C116.872 2.928 116.29 3.366 115.87 3.954C115.45 4.542 115.24 5.286 115.24 6.186C115.24 7.086 115.45 7.83 115.87 8.418C116.29 9.006 116.872 9.444 117.616 9.732C118.36 10.02 119.206 10.164 120.154 10.164ZM131.887 0.354V10.002H139.627V12H129.493V0.354H131.887ZM147.876 12.234C146.328 12.234 145.002 11.994 143.898 11.514C142.806 11.022 141.966 10.326 141.378 9.426C140.802 8.526 140.514 7.446 140.514 6.186C140.514 4.914 140.802 3.828 141.378 2.928C141.966 2.028 142.806 1.338 143.898 0.858C145.002 0.366 146.328 0.12 147.876 0.12C149.436 0.12 150.762 0.366 151.854 0.858C152.946 1.338 153.78 2.028 154.356 2.928C154.944 3.828 155.238 4.914 155.238 6.186C155.238 7.446 154.944 8.526 154.356 9.426C153.78 10.326 152.946 11.022 151.854 11.514C150.762 11.994 149.436 12.234 147.876 12.234ZM147.876 10.164C148.836 10.164 149.676 10.02 150.396 9.732C151.128 9.444 151.698 9.006 152.106 8.418C152.526 7.83 152.736 7.086 152.736 6.186C152.736 5.286 152.526 4.542 152.106 3.954C151.698 3.366 151.128 2.928 150.396 2.64C149.676 2.34 148.836 2.19 147.876 2.19C146.928 2.19 146.082 2.34 145.338 2.64C144.594 2.928 144.012 3.366 143.592 3.954C143.172 4.542 142.962 5.286 142.962 6.186C142.962 7.086 143.172 7.83 143.592 8.418C144.012 9.006 144.594 9.444 145.338 9.732C146.082 10.02 146.928 10.164 147.876 10.164ZM163.91 12.234C162.482 12.234 161.228 12.012 160.148 11.568C159.08 11.112 158.252 10.44 157.664 9.552C157.076 8.664 156.782 7.572 156.782 6.276C156.782 4.956 157.088 3.84 157.7 2.928C158.324 2.016 159.194 1.32 160.31 0.84C161.426 0.36 162.716 0.12 164.18 0.12C166.148 0.12 167.702 0.521999 168.842 1.326C169.982 2.13 170.612 3.21 170.732 4.566H168.428C168.2 3.858 167.738 3.288 167.042 2.856C166.358 2.412 165.404 2.19 164.18 2.19C162.608 2.19 161.39 2.562 160.526 3.306C159.674 4.05 159.248 5.04 159.248 6.276C159.248 7.476 159.626 8.424 160.382 9.12C161.15 9.816 162.356 10.164 164 10.164C165.2 10.164 166.196 9.948 166.988 9.516C167.792 9.072 168.35 8.52 168.662 7.86H164.198V6.33H171.146V12H169.076C169.076 11.556 169.106 11.04 169.166 10.452C169.238 9.852 169.316 9.27 169.4 8.706C169.028 9.822 168.368 10.692 167.42 11.316C166.484 11.928 165.314 12.234 163.91 12.234ZM184.073 0.354L178.961 8.328V12H176.549V8.328L171.437 0.354H174.209L177.791 6.15L181.301 0.354H184.073Z" fill="#181D1F"/>
</svg>