<svg xmlns="http://www.w3.org/2000/svg" width="185" height="13" viewBox="0 0 185 13" fill="none">
 <path d="M0.728 0.354H3.122V12H0.728V0.354ZM16.9139 12L8.25594 3.54V12H5.86194V0.354H8.25594L16.9139 8.886V0.354H19.3079V12H16.9139ZM35.3165 7.806C35.1605 9.222 34.5065 10.314 33.3545 11.082C32.2025 11.85 30.6485 12.234 28.6925 12.234C27.2405 12.234 25.9565 12.012 24.8405 11.568C23.7245 11.112 22.8545 10.44 22.2305 9.552C21.6065 8.652 21.2945 7.536 21.2945 6.204C21.2945 4.86 21.6065 3.738 22.2305 2.838C22.8545 1.938 23.7245 1.26 24.8405 0.803999C25.9565 0.347999 27.2405 0.12 28.6925 0.12C30.6605 0.12 32.2145 0.515999 33.3545 1.308C34.5065 2.1 35.1605 3.204 35.3165 4.62H32.9405C32.7005 3.864 32.2265 3.27 31.5185 2.838C30.8225 2.406 29.8805 2.19 28.6925 2.19C27.2045 2.19 26.0105 2.532 25.1105 3.216C24.2105 3.888 23.7605 4.884 23.7605 6.204C23.7605 7.5 24.2105 8.49 25.1105 9.174C26.0105 9.846 27.2045 10.182 28.6925 10.182C29.8805 10.182 30.8225 9.972 31.5185 9.552C32.2145 9.12 32.6885 8.538 32.9405 7.806H35.3165ZM39.5274 0.354H51.8034V2.352H46.8714V12H44.4774V2.352H39.5274V0.354ZM55.5777 7.14V10.002H64.5597V12H53.1837V0.354H64.5417V2.352H55.5777V5.25H62.9217V7.14H55.5777ZM80.1422 7.806C79.9862 9.222 79.3322 10.314 78.1802 11.082C77.0282 11.85 75.4742 12.234 73.5182 12.234C72.0662 12.234 70.7822 12.012 69.6662 11.568C68.5502 11.112 67.6802 10.44 67.0562 9.552C66.4322 8.652 66.1202 7.536 66.1202 6.204C66.1202 4.86 66.4322 3.738 67.0562 2.838C67.6802 1.938 68.5502 1.26 69.6662 0.803999C70.7822 0.347999 72.0662 0.12 73.5182 0.12C75.4862 0.12 77.0402 0.515999 78.1802 1.308C79.3322 2.1 79.9862 3.204 80.1422 4.62H77.7662C77.5262 3.864 77.0522 3.27 76.3442 2.838C75.6482 2.406 74.7062 2.19 73.5182 2.19C72.0302 2.19 70.8362 2.532 69.9362 3.216C69.0362 3.888 68.5862 4.884 68.5862 6.204C68.5862 7.5 69.0362 8.49 69.9362 9.174C70.8362 9.846 72.0302 10.182 73.5182 10.182C74.7062 10.182 75.6482 9.972 76.3442 9.552C77.0402 9.12 77.5142 8.538 77.7662 7.806H80.1422ZM82.118 0.354H84.512V5.16H93.062V0.354H95.456V12H93.062V7.158H84.512V12H82.118V0.354ZM108.912 12L100.254 3.54V12H97.8595V0.354H100.254L108.912 8.886V0.354H111.306V12H108.912ZM120.654 12.234C119.106 12.234 117.78 11.994 116.676 11.514C115.584 11.022 114.744 10.326 114.156 9.426C113.58 8.526 113.292 7.446 113.292 6.186C113.292 4.914 113.58 3.828 114.156 2.928C114.744 2.028 115.584 1.338 116.676 0.858C117.78 0.366 119.106 0.12 120.654 0.12C122.214 0.12 123.54 0.366 124.632 0.858C125.724 1.338 126.558 2.028 127.134 2.928C127.722 3.828 128.016 4.914 128.016 6.186C128.016 7.446 127.722 8.526 127.134 9.426C126.558 10.326 125.724 11.022 124.632 11.514C123.54 11.994 122.214 12.234 120.654 12.234ZM120.654 10.164C121.614 10.164 122.454 10.02 123.174 9.732C123.906 9.444 124.476 9.006 124.884 8.418C125.304 7.83 125.514 7.086 125.514 6.186C125.514 5.286 125.304 4.542 124.884 3.954C124.476 3.366 123.906 2.928 123.174 2.64C122.454 2.34 121.614 2.19 120.654 2.19C119.706 2.19 118.86 2.34 118.116 2.64C117.372 2.928 116.79 3.366 116.37 3.954C115.95 4.542 115.74 5.286 115.74 6.186C115.74 7.086 115.95 7.83 116.37 8.418C116.79 9.006 117.372 9.444 118.116 9.732C118.86 10.02 119.706 10.164 120.654 10.164ZM132.387 0.354V10.002H140.127V12H129.993V0.354H132.387ZM148.376 12.234C146.828 12.234 145.502 11.994 144.398 11.514C143.306 11.022 142.466 10.326 141.878 9.426C141.302 8.526 141.014 7.446 141.014 6.186C141.014 4.914 141.302 3.828 141.878 2.928C142.466 2.028 143.306 1.338 144.398 0.858C145.502 0.366 146.828 0.12 148.376 0.12C149.936 0.12 151.262 0.366 152.354 0.858C153.446 1.338 154.28 2.028 154.856 2.928C155.444 3.828 155.738 4.914 155.738 6.186C155.738 7.446 155.444 8.526 154.856 9.426C154.28 10.326 153.446 11.022 152.354 11.514C151.262 11.994 149.936 12.234 148.376 12.234ZM148.376 10.164C149.336 10.164 150.176 10.02 150.896 9.732C151.628 9.444 152.198 9.006 152.606 8.418C153.026 7.83 153.236 7.086 153.236 6.186C153.236 5.286 153.026 4.542 152.606 3.954C152.198 3.366 151.628 2.928 150.896 2.64C150.176 2.34 149.336 2.19 148.376 2.19C147.428 2.19 146.582 2.34 145.838 2.64C145.094 2.928 144.512 3.366 144.092 3.954C143.672 4.542 143.462 5.286 143.462 6.186C143.462 7.086 143.672 7.83 144.092 8.418C144.512 9.006 145.094 9.444 145.838 9.732C146.582 10.02 147.428 10.164 148.376 10.164ZM164.41 12.234C162.982 12.234 161.728 12.012 160.648 11.568C159.58 11.112 158.752 10.44 158.164 9.552C157.576 8.664 157.282 7.572 157.282 6.276C157.282 4.956 157.588 3.84 158.2 2.928C158.824 2.016 159.694 1.32 160.81 0.84C161.926 0.36 163.216 0.12 164.68 0.12C166.648 0.12 168.202 0.521999 169.342 1.326C170.482 2.13 171.112 3.21 171.232 4.566H168.928C168.7 3.858 168.238 3.288 167.542 2.856C166.858 2.412 165.904 2.19 164.68 2.19C163.108 2.19 161.89 2.562 161.026 3.306C160.174 4.05 159.748 5.04 159.748 6.276C159.748 7.476 160.126 8.424 160.882 9.12C161.65 9.816 162.856 10.164 164.5 10.164C165.7 10.164 166.696 9.948 167.488 9.516C168.292 9.072 168.85 8.52 169.162 7.86H164.698V6.33H171.646V12H169.576C169.576 11.556 169.606 11.04 169.666 10.452C169.738 9.852 169.816 9.27 169.9 8.706C169.528 9.822 168.868 10.692 167.92 11.316C166.984 11.928 165.814 12.234 164.41 12.234ZM184.573 0.354L179.461 8.328V12H177.049V8.328L171.937 0.354H174.709L178.291 6.15L181.801 0.354H184.573Z" fill="white"/>
</svg>